PathFileType	4	(X/Y/Z)	D:\TRACE\v60_Jaco2_6-2-23\BothDRS_Motion2_4-platform.trc
DataRate	CameraRate	NumFrames	NumMarkers	Units	OrigDataRate	OrigDataStartFrame	OrigNumFrames
100.00	100.00	      24	5	mm	100.00	6563	      7500
Frame#	Time	Left_Front			Right_Front			Left_Aft			Right_Aft			Post			
		X1	Y1	Z1	X2	Y2	Z2	X3	Y3	Z3	X4	Y4	Z4	X5	Y5	Z5	

6563	65.620	-800.20807	-27.05639	-646.71948	769.98425	-25.01611	-651.69415	-707.87500	31.88253	487.02930	734.12415	32.55239	496.09830	-14.24959	1253.12805	-1046.00537	
6564	65.630	-798.90295	-25.62783	-646.25330	771.13342	-24.25885	-651.90546	-706.61603	30.80710	487.25314	734.93195	31.71816	496.40311	-13.21908	1255.23010	-1042.26147	
6565	65.640	-797.56976	-24.18708	-646.14703	772.37091	-22.81965	-651.38092	-705.33069	29.78679	487.70462	735.19312	29.74990	496.75235	-11.89853	1257.31567	-1039.06287	
6566	65.650	-796.64600	-23.21426	-645.84070	773.30383	-21.72295	-651.25568	-704.17444	28.72227	488.18286	736.47174	29.00781	497.17178	-10.67793	1259.25293	-1034.93909	
6567	65.660	-795.52661	-21.94801	-645.72510	774.69672	-20.27341	-651.10211	-702.82489	27.47655	488.78897	737.49835	28.20748	497.71103	-9.71216	1261.44556	-1031.07751	
6568	65.670	-794.31659	-20.15745	-645.47992	775.79303	-18.91619	-650.53815	-702.09210	27.32539	488.77332	738.69727	27.28820	498.30447	-8.63418	1263.55334	-1026.99988	
6569	65.680	-793.18726	-18.76132	-644.97034	776.69763	-17.45004	-650.27374	-700.73676	26.13151	489.95825	740.28674	26.56012	498.47855	-7.65566	1265.74707	-1022.79785	
6570	65.690	-791.96039	-17.60201	-644.54938	778.06519	-16.14102	-650.21753	-700.64941	26.40357	489.66672	741.66748	25.68056	498.71988	-6.53621	1267.90540	-1018.92468	
6571	65.700	-791.10931	-16.18687	-644.55115	778.86047	-14.61220	-649.97247	-699.30145	25.40495	489.91293	742.65881	24.63539	499.06973	-5.31523	1269.94019	-1014.83173	
6572	65.710	-789.84943	-14.81432	-644.42511	780.16022	-13.33058	-649.60187	-698.29010	24.24128	490.21487	743.81787	23.59243	499.51013	-3.85361	1272.38354	-1011.24457	
6573	65.720	-788.56915	-13.16219	-644.16345	781.32196	-12.02556	-649.25153	-696.94904	23.16397	490.54251	744.72186	22.57915	500.06531	-3.13846	1274.68127	-1008.04156	
6574	65.730	-787.49432	-11.79287	-643.73553	782.27826	-10.23054	-649.14386	-695.74243	22.09223	491.14407	745.55707	21.16408	499.93936	-1.96336	1276.77283	-1005.47974	
6575	65.740	-786.40063	-10.31775	-643.05157	783.69415	-8.81516	-648.63965	-694.42352	21.07087	491.47266	747.68805	20.93563	500.35712	-0.89025	1279.11731	-1003.10181	
6576	65.750	-785.28827	-8.80295	-643.17902	784.65472	-7.52329	-648.43396	-693.32220	19.97925	491.86508	748.60181	19.72365	500.71353	0.17328	1281.25317	-1000.61719	
6577	65.760	-784.09216	-7.52285	-642.81482	785.84460	-5.87501	-648.20850	-692.27063	18.97878	492.10611	749.95319	18.77686	500.93967	1.91750	1283.67126	-998.50800	
6578	65.770	-783.03253	-5.96511	-642.36896	786.89789	-4.47432	-647.79919	-691.17047	17.77929	492.48145	750.84973	17.45090	501.22986	2.90270	1285.91711	-996.21899	
6579	65.780	-782.02759	-4.25530	-642.15436	787.96130	-3.03522	-647.43231	-690.08807	16.91817	492.87485	751.25183	15.62508	500.97559	3.85820	1288.18677	-993.62878	
6580	65.790	-780.87561	-2.73319	-641.67908	789.13837	-1.43611	-647.12061	-688.87598	15.87978	493.22781	752.29932	14.67971	501.66248	5.00669	1290.61108	-990.63110	
6581	65.800	-779.53265	-1.06258	-641.60321	790.57166	0.19289	-646.56354	-687.74878	14.80425	493.49921	753.86200	13.99767	502.42447	6.36254	1292.91296	-987.91638	
6582	65.810	-778.39288	-0.20044	-641.14899	791.35266	1.86395	-646.35156	-686.78076	13.82991	493.89124	754.73407	13.14365	503.04794	7.60477	1295.18982	-985.13989	
6583	65.820	-777.65918	1.74478	-640.68872	792.38605	3.09742	-646.28278	-685.60059	12.58127	494.34637	756.19672	12.12298	503.49838	8.63614	1297.40564	-981.94537	
6584	65.830	-776.72150	3.68565	-640.59100	793.51245	4.63787	-645.69775	-684.61090	11.59361	494.63049	757.28790	11.00564	503.91351	9.68086	1299.74365	-978.61896	
6585	65.840	-775.52148	5.05696	-640.07727	794.47388	6.32471	-645.29132	-683.56000	10.47412	495.11200	757.99695	9.96306	504.41974	10.48752	1302.13611	-974.91132	
6586	65.850	-774.29071	6.58740	-639.77045	795.69647	7.98717	-645.01428	-682.45801	9.50878	495.42386	759.81494	9.06140	504.70084	11.39624	1304.58130	-971.84430	
